# xmcd CD database file
#
# Track frame offsets:
#	150
#	30712
#	54297
#	124847
#	160692
#	186275
#	209250
#
# Disc length: 3336 seconds
#
# Revision: 0
# Processed by: cddbd v1.4PL0 Copyright (c) Steve Scherf et al.
# Submitted via: Feurio! 1.65 - http://www.feurio.com
#
DISCID=580d0607
DTITLE=Stone The Crows - Niagara Disc 1 Live 1971
DYEAR=1900
DGENRE=Blues
TTITLE0=158
TTITLE1=Keep On Rollin'
TTITLE2=Big Jim Salter
TTITLE3=Mr. Wizard
TTITLE4=Don't Think Twice, It's Allright
TTITLE5=Goin' Down
TTITLE6=Think
EXTD=
EXTT0=
EXTT1=
EXTT2=
EXTT3=
EXTT4=
EXTT5=
EXTT6=
PLAYORDER=
